<svg width="207" height="300" viewBox="0 0 207 300" fill="none" xmlns="http://www.w3.org/2000/svg">
<path d="M203.941 90.3377L167.258 0H113.192V90.3377H203.941ZM92.953 280.085C92.953 269.128 84.0399 260.247 73.0426 260.247C62.0453 260.247 53.1322 269.128 53.1322 280.085C53.1322 291.043 62.0453 299.924 73.0426 299.924C84.0399 299.924 92.953 291.043 92.953 280.085ZM92.953 229.255C92.953 218.297 84.0399 209.416 73.0426 209.416C62.0453 209.416 53.1322 218.297 53.1322 229.255C53.1322 240.212 62.0453 249.093 73.0426 249.093C84.0399 249.093 92.953 240.212 92.953 229.255ZM92.953 180.681V0C42.8754 0 2.28673 40.447 2.28673 90.3377C2.28673 140.228 42.8809 180.676 92.953 180.676V180.681ZM2.1167 229.255C2.1167 240.212 11.0298 249.093 22.0271 249.093C33.0244 249.093 41.9375 240.212 41.9375 229.255C41.9375 218.297 33.0244 209.416 22.0271 209.416C11.0298 209.416 2.1167 218.297 2.1167 229.255ZM2.1167 280.085C2.1167 291.043 11.0298 299.924 22.0271 299.924C33.0244 299.924 41.9375 291.043 41.9375 280.085C41.9375 269.128 33.0244 260.247 22.0271 260.247C11.0298 260.247 2.1167 269.128 2.1167 280.085ZM113.198 119.319V300C163.27 300 203.864 259.553 203.864 209.662C203.864 159.772 163.27 119.325 113.198 119.325V119.319Z" fill="white"></path>
</svg>